<mxfile host="app.diagrams.net" modified="2021-09-17T02:44:37.131Z" agent="5.0 (Windows NT 10.0; Win64; x64) AppleWebKit/537.36 (KHTML, like Gecko) Chrome/93.0.4577.63 Safari/537.36" etag="5JzbmP8Qomsdn-sRYLHA" version="15.2.7" type="github" pages="2">
  <diagram id="D8xPuELbZIahjoYPrygg" name="Page-1">
    <mxGraphModel dx="3597" dy="1205" grid="1" gridSize="10" guides="1" tooltips="1" connect="1" arrows="1" fold="1" page="1" pageScale="1" pageWidth="827" pageHeight="1169" math="0" shadow="0">
      <root>
        <mxCell id="0" />
        <mxCell id="1" parent="0" />
        <mxCell id="G-JNESvF-hCAvfuxsq3e-1" value="" style="rounded=1;whiteSpace=wrap;html=1;" vertex="1" parent="1">
          <mxGeometry x="140" y="110" width="190" height="70" as="geometry" />
        </mxCell>
        <mxCell id="G-JNESvF-hCAvfuxsq3e-2" value="&lt;font style=&quot;font-size: 20px&quot;&gt;Inicio&lt;/font&gt;" style="text;html=1;resizable=0;autosize=1;align=center;verticalAlign=middle;points=[];fillColor=none;strokeColor=none;rounded=0;fontSize=20;" vertex="1" parent="1">
          <mxGeometry x="205" y="130" width="60" height="30" as="geometry" />
        </mxCell>
        <mxCell id="G-JNESvF-hCAvfuxsq3e-3" value="" style="endArrow=classic;startArrow=classic;html=1;entryX=0.5;entryY=1;entryDx=0;entryDy=0;" edge="1" parent="1" target="G-JNESvF-hCAvfuxsq3e-1">
          <mxGeometry width="50" height="50" relative="1" as="geometry">
            <mxPoint x="240" y="350" as="sourcePoint" />
            <mxPoint x="250" y="210" as="targetPoint" />
          </mxGeometry>
        </mxCell>
        <mxCell id="G-JNESvF-hCAvfuxsq3e-6" value="" style="whiteSpace=wrap;html=1;aspect=fixed;" vertex="1" parent="1">
          <mxGeometry x="150" y="350" width="200" height="200" as="geometry" />
        </mxCell>
        <mxCell id="G-JNESvF-hCAvfuxsq3e-7" value="" style="endArrow=none;html=1;entryX=1;entryY=0.25;entryDx=0;entryDy=0;exitX=0;exitY=0.25;exitDx=0;exitDy=0;" edge="1" parent="1" source="G-JNESvF-hCAvfuxsq3e-6" target="G-JNESvF-hCAvfuxsq3e-6">
          <mxGeometry width="50" height="50" relative="1" as="geometry">
            <mxPoint x="140" y="430" as="sourcePoint" />
            <mxPoint x="590" y="450" as="targetPoint" />
          </mxGeometry>
        </mxCell>
        <mxCell id="G-JNESvF-hCAvfuxsq3e-5" value="&lt;font style=&quot;font-size: 20px&quot;&gt;E&lt;/font&gt;" style="text;html=1;strokeColor=none;fillColor=none;align=center;verticalAlign=middle;whiteSpace=wrap;rounded=0;" vertex="1" parent="1">
          <mxGeometry x="225" y="370" width="40" height="20" as="geometry" />
        </mxCell>
        <mxCell id="G-JNESvF-hCAvfuxsq3e-10" value="&lt;font style=&quot;font-size: 20px&quot;&gt;Verificar a disponibilidade do apartamento solicitado&lt;/font&gt;" style="text;html=1;strokeColor=none;fillColor=none;align=center;verticalAlign=middle;whiteSpace=wrap;rounded=0;" vertex="1" parent="1">
          <mxGeometry x="165" y="460" width="160" height="10" as="geometry" />
        </mxCell>
        <mxCell id="G-JNESvF-hCAvfuxsq3e-11" value="" style="endArrow=classic;startArrow=classic;html=1;entryX=0.5;entryY=1;entryDx=0;entryDy=0;exitX=0.5;exitY=0;exitDx=0;exitDy=0;" edge="1" parent="1" source="G-JNESvF-hCAvfuxsq3e-12" target="G-JNESvF-hCAvfuxsq3e-6">
          <mxGeometry width="50" height="50" relative="1" as="geometry">
            <mxPoint x="240" y="700" as="sourcePoint" />
            <mxPoint x="270" y="550" as="targetPoint" />
          </mxGeometry>
        </mxCell>
        <mxCell id="k2B3AoLcdQhBK3Ua2kND-1" style="edgeStyle=orthogonalEdgeStyle;rounded=0;orthogonalLoop=1;jettySize=auto;html=1;" edge="1" parent="1" source="G-JNESvF-hCAvfuxsq3e-12">
          <mxGeometry relative="1" as="geometry">
            <mxPoint x="60" y="970" as="targetPoint" />
          </mxGeometry>
        </mxCell>
        <mxCell id="k2B3AoLcdQhBK3Ua2kND-2" style="edgeStyle=orthogonalEdgeStyle;rounded=0;orthogonalLoop=1;jettySize=auto;html=1;exitX=1;exitY=0.5;exitDx=0;exitDy=0;" edge="1" parent="1" source="G-JNESvF-hCAvfuxsq3e-12">
          <mxGeometry relative="1" as="geometry">
            <mxPoint x="540" y="960" as="targetPoint" />
          </mxGeometry>
        </mxCell>
        <mxCell id="G-JNESvF-hCAvfuxsq3e-12" value="" style="rhombus;whiteSpace=wrap;html=1;" vertex="1" parent="1">
          <mxGeometry x="100" y="700" width="300" height="150" as="geometry" />
        </mxCell>
        <mxCell id="G-JNESvF-hCAvfuxsq3e-13" value="&lt;font style=&quot;font-size: 20px&quot;&gt;Os apartamentos disponiveis atendem a necessidade do cliente?&lt;/font&gt;" style="text;html=1;strokeColor=none;fillColor=none;align=center;verticalAlign=middle;whiteSpace=wrap;rounded=0;" vertex="1" parent="1">
          <mxGeometry x="150" y="780" width="200" height="10" as="geometry" />
        </mxCell>
        <mxCell id="k2B3AoLcdQhBK3Ua2kND-4" value="&lt;font style=&quot;font-size: 20px&quot;&gt;&amp;nbsp;N&lt;/font&gt;" style="text;html=1;strokeColor=none;fillColor=none;align=center;verticalAlign=middle;whiteSpace=wrap;rounded=0;" vertex="1" parent="1">
          <mxGeometry x="460" y="730" width="40" height="20" as="geometry" />
        </mxCell>
        <mxCell id="k2B3AoLcdQhBK3Ua2kND-6" value="&lt;font style=&quot;font-size: 20px&quot;&gt;S&lt;/font&gt;" style="text;html=1;strokeColor=none;fillColor=none;align=center;verticalAlign=middle;whiteSpace=wrap;rounded=0;" vertex="1" parent="1">
          <mxGeometry x="60" y="740" width="40" height="20" as="geometry" />
        </mxCell>
        <mxCell id="k2B3AoLcdQhBK3Ua2kND-7" value="" style="whiteSpace=wrap;html=1;aspect=fixed;" vertex="1" parent="1">
          <mxGeometry x="-35" y="969" width="200" height="200" as="geometry" />
        </mxCell>
        <mxCell id="k2B3AoLcdQhBK3Ua2kND-11" value="&lt;font style=&quot;font-size: 20px&quot;&gt;E&lt;/font&gt;" style="text;html=1;strokeColor=none;fillColor=none;align=center;verticalAlign=middle;whiteSpace=wrap;rounded=0;" vertex="1" parent="1">
          <mxGeometry x="40" y="990" width="40" height="20" as="geometry" />
        </mxCell>
        <mxCell id="k2B3AoLcdQhBK3Ua2kND-12" value="&lt;font style=&quot;font-size: 20px&quot;&gt;Reservar o apartamento selecionado pelo cliente&lt;/font&gt;" style="text;html=1;strokeColor=none;fillColor=none;align=center;verticalAlign=middle;whiteSpace=wrap;rounded=0;" vertex="1" parent="1">
          <mxGeometry x="-20" y="1080" width="160" height="10" as="geometry" />
        </mxCell>
        <mxCell id="k2B3AoLcdQhBK3Ua2kND-17" style="edgeStyle=orthogonalEdgeStyle;rounded=0;orthogonalLoop=1;jettySize=auto;html=1;exitX=0.5;exitY=1;exitDx=0;exitDy=0;" edge="1" parent="1" source="k2B3AoLcdQhBK3Ua2kND-13">
          <mxGeometry relative="1" as="geometry">
            <mxPoint x="549.9999999999998" y="1400" as="targetPoint" />
          </mxGeometry>
        </mxCell>
        <mxCell id="k2B3AoLcdQhBK3Ua2kND-13" value="" style="whiteSpace=wrap;html=1;aspect=fixed;" vertex="1" parent="1">
          <mxGeometry x="438" y="960" width="200" height="200" as="geometry" />
        </mxCell>
        <mxCell id="k2B3AoLcdQhBK3Ua2kND-14" value="&lt;font style=&quot;font-size: 20px&quot;&gt;E&lt;/font&gt;" style="text;html=1;strokeColor=none;fillColor=none;align=center;verticalAlign=middle;whiteSpace=wrap;rounded=0;" vertex="1" parent="1">
          <mxGeometry x="515" y="981" width="40" height="20" as="geometry" />
        </mxCell>
        <mxCell id="k2B3AoLcdQhBK3Ua2kND-15" value="&lt;span style=&quot;font-size: 20px&quot;&gt;Informar ao cliente da não disponibilidade e sugerir outras opções&lt;/span&gt;" style="text;html=1;strokeColor=none;fillColor=none;align=center;verticalAlign=middle;whiteSpace=wrap;rounded=0;" vertex="1" parent="1">
          <mxGeometry x="455" y="1082" width="155" height="10" as="geometry" />
        </mxCell>
        <mxCell id="k2B3AoLcdQhBK3Ua2kND-10" value="" style="endArrow=none;html=1;entryX=1;entryY=0.25;entryDx=0;entryDy=0;exitX=0;exitY=0.25;exitDx=0;exitDy=0;" edge="1" parent="1">
          <mxGeometry width="50" height="50" relative="1" as="geometry">
            <mxPoint x="440" y="1020" as="sourcePoint" />
            <mxPoint x="640" y="1020" as="targetPoint" />
          </mxGeometry>
        </mxCell>
        <mxCell id="k2B3AoLcdQhBK3Ua2kND-16" value="" style="endArrow=none;html=1;entryX=1;entryY=0.25;entryDx=0;entryDy=0;exitX=0;exitY=0.25;exitDx=0;exitDy=0;" edge="1" parent="1">
          <mxGeometry width="50" height="50" relative="1" as="geometry">
            <mxPoint x="-35" y="1030" as="sourcePoint" />
            <mxPoint x="165" y="1030" as="targetPoint" />
          </mxGeometry>
        </mxCell>
        <mxCell id="k2B3AoLcdQhBK3Ua2kND-20" style="edgeStyle=orthogonalEdgeStyle;rounded=0;orthogonalLoop=1;jettySize=auto;html=1;" edge="1" parent="1" source="k2B3AoLcdQhBK3Ua2kND-18">
          <mxGeometry relative="1" as="geometry">
            <mxPoint x="120" y="1713" as="targetPoint" />
          </mxGeometry>
        </mxCell>
        <mxCell id="k2B3AoLcdQhBK3Ua2kND-21" style="edgeStyle=orthogonalEdgeStyle;rounded=0;orthogonalLoop=1;jettySize=auto;html=1;exitX=1;exitY=0.5;exitDx=0;exitDy=0;entryX=0.5;entryY=0;entryDx=0;entryDy=0;" edge="1" parent="1" source="k2B3AoLcdQhBK3Ua2kND-18" target="k2B3AoLcdQhBK3Ua2kND-26">
          <mxGeometry relative="1" as="geometry">
            <mxPoint x="1100" y="1690" as="targetPoint" />
          </mxGeometry>
        </mxCell>
        <mxCell id="k2B3AoLcdQhBK3Ua2kND-18" value="" style="rhombus;whiteSpace=wrap;html=1;" vertex="1" parent="1">
          <mxGeometry x="380" y="1400" width="340" height="200" as="geometry" />
        </mxCell>
        <mxCell id="k2B3AoLcdQhBK3Ua2kND-19" value="&lt;span style=&quot;font-size: 20px&quot;&gt;As opções disponibilizadas atende a necessidade do cliente?&lt;/span&gt;" style="text;html=1;strokeColor=none;fillColor=none;align=center;verticalAlign=middle;whiteSpace=wrap;rounded=0;" vertex="1" parent="1">
          <mxGeometry x="433" y="1490" width="230" height="10" as="geometry" />
        </mxCell>
        <mxCell id="k2B3AoLcdQhBK3Ua2kND-22" value="&lt;font style=&quot;font-size: 20px&quot;&gt;&amp;nbsp;N&lt;/font&gt;" style="text;html=1;strokeColor=none;fillColor=none;align=center;verticalAlign=middle;whiteSpace=wrap;rounded=0;" vertex="1" parent="1">
          <mxGeometry x="860" y="1460" width="40" height="20" as="geometry" />
        </mxCell>
        <mxCell id="k2B3AoLcdQhBK3Ua2kND-23" value="&lt;font style=&quot;font-size: 20px&quot;&gt;S&lt;/font&gt;" style="text;html=1;strokeColor=none;fillColor=none;align=center;verticalAlign=middle;whiteSpace=wrap;rounded=0;" vertex="1" parent="1">
          <mxGeometry x="215" y="1460" width="40" height="20" as="geometry" />
        </mxCell>
        <mxCell id="k2B3AoLcdQhBK3Ua2kND-38" style="edgeStyle=orthogonalEdgeStyle;rounded=0;orthogonalLoop=1;jettySize=auto;html=1;" edge="1" parent="1">
          <mxGeometry relative="1" as="geometry">
            <mxPoint x="114.99999999999977" y="2402.8571428571427" as="targetPoint" />
            <mxPoint x="100" y="1940" as="sourcePoint" />
          </mxGeometry>
        </mxCell>
        <mxCell id="k2B3AoLcdQhBK3Ua2kND-56" style="edgeStyle=orthogonalEdgeStyle;rounded=0;orthogonalLoop=1;jettySize=auto;html=1;entryX=1;entryY=0.5;entryDx=0;entryDy=0;" edge="1" parent="1" source="k2B3AoLcdQhBK3Ua2kND-26" target="k2B3AoLcdQhBK3Ua2kND-54">
          <mxGeometry relative="1" as="geometry">
            <mxPoint x="730" y="3520" as="targetPoint" />
          </mxGeometry>
        </mxCell>
        <mxCell id="k2B3AoLcdQhBK3Ua2kND-26" value="" style="whiteSpace=wrap;html=1;aspect=fixed;" vertex="1" parent="1">
          <mxGeometry x="970" y="1700" width="250" height="250" as="geometry" />
        </mxCell>
        <mxCell id="k2B3AoLcdQhBK3Ua2kND-27" value="&lt;font style=&quot;font-size: 20px&quot;&gt;E&lt;/font&gt;" style="text;html=1;strokeColor=none;fillColor=none;align=center;verticalAlign=middle;whiteSpace=wrap;rounded=0;" vertex="1" parent="1">
          <mxGeometry x="1075" y="1734" width="40" height="20" as="geometry" />
        </mxCell>
        <mxCell id="k2B3AoLcdQhBK3Ua2kND-28" value="&lt;span style=&quot;font-size: 20px&quot;&gt;Agradecer ao cliente pela preferência e sugerir novas datas para reserva no hotel&lt;/span&gt;" style="text;html=1;strokeColor=none;fillColor=none;align=center;verticalAlign=middle;whiteSpace=wrap;rounded=0;" vertex="1" parent="1">
          <mxGeometry x="995" y="1850" width="200" height="10" as="geometry" />
        </mxCell>
        <mxCell id="k2B3AoLcdQhBK3Ua2kND-29" value="" style="endArrow=none;html=1;exitX=0;exitY=0.25;exitDx=0;exitDy=0;" edge="1" parent="1">
          <mxGeometry width="50" height="50" relative="1" as="geometry">
            <mxPoint x="969.9999999999998" y="1768.9999999999998" as="sourcePoint" />
            <mxPoint x="1220" y="1769" as="targetPoint" />
          </mxGeometry>
        </mxCell>
        <mxCell id="k2B3AoLcdQhBK3Ua2kND-43" style="edgeStyle=orthogonalEdgeStyle;rounded=0;orthogonalLoop=1;jettySize=auto;html=1;exitX=0.5;exitY=1;exitDx=0;exitDy=0;" edge="1" parent="1" source="k2B3AoLcdQhBK3Ua2kND-39">
          <mxGeometry relative="1" as="geometry">
            <mxPoint x="114.71428571428578" y="2820" as="targetPoint" />
          </mxGeometry>
        </mxCell>
        <mxCell id="k2B3AoLcdQhBK3Ua2kND-39" value="" style="whiteSpace=wrap;html=1;aspect=fixed;" vertex="1" parent="1">
          <mxGeometry x="-10" y="2400" width="250" height="250" as="geometry" />
        </mxCell>
        <mxCell id="k2B3AoLcdQhBK3Ua2kND-40" value="&lt;font style=&quot;font-size: 20px&quot;&gt;E&lt;/font&gt;" style="text;html=1;strokeColor=none;fillColor=none;align=center;verticalAlign=middle;whiteSpace=wrap;rounded=0;" vertex="1" parent="1">
          <mxGeometry x="95" y="2417" width="40" height="20" as="geometry" />
        </mxCell>
        <mxCell id="k2B3AoLcdQhBK3Ua2kND-41" value="&lt;span style=&quot;font-size: 20px&quot;&gt;Informar na reserva do hospede, os tipos de forma de pagamento. Sendo os tipos: Pagamento antecipado, a faturar e pagamento no check-out&lt;/span&gt;" style="text;html=1;strokeColor=none;fillColor=none;align=center;verticalAlign=middle;whiteSpace=wrap;rounded=0;" vertex="1" parent="1">
          <mxGeometry x="15" y="2546" width="200" height="10" as="geometry" />
        </mxCell>
        <mxCell id="k2B3AoLcdQhBK3Ua2kND-42" value="" style="endArrow=none;html=1;exitX=0;exitY=0.25;exitDx=0;exitDy=0;" edge="1" parent="1">
          <mxGeometry width="50" height="50" relative="1" as="geometry">
            <mxPoint x="-10" y="2447" as="sourcePoint" />
            <mxPoint x="239.99999999999977" y="2447" as="targetPoint" />
          </mxGeometry>
        </mxCell>
        <mxCell id="k2B3AoLcdQhBK3Ua2kND-48" style="edgeStyle=orthogonalEdgeStyle;rounded=0;orthogonalLoop=1;jettySize=auto;html=1;" edge="1" parent="1" source="k2B3AoLcdQhBK3Ua2kND-44">
          <mxGeometry relative="1" as="geometry">
            <mxPoint x="114.99999999999977" y="3380" as="targetPoint" />
          </mxGeometry>
        </mxCell>
        <mxCell id="k2B3AoLcdQhBK3Ua2kND-44" value="" style="whiteSpace=wrap;html=1;aspect=fixed;" vertex="1" parent="1">
          <mxGeometry x="-10" y="2820" width="250" height="250" as="geometry" />
        </mxCell>
        <mxCell id="k2B3AoLcdQhBK3Ua2kND-45" value="&lt;font style=&quot;font-size: 20px&quot;&gt;E&lt;/font&gt;" style="text;html=1;strokeColor=none;fillColor=none;align=center;verticalAlign=middle;whiteSpace=wrap;rounded=0;" vertex="1" parent="1">
          <mxGeometry x="95" y="2837" width="40" height="20" as="geometry" />
        </mxCell>
        <mxCell id="k2B3AoLcdQhBK3Ua2kND-46" value="&lt;span style=&quot;font-size: 20px&quot;&gt;Confirmar a efetivação do pagamento pelo hospede&lt;/span&gt;" style="text;html=1;strokeColor=none;fillColor=none;align=center;verticalAlign=middle;whiteSpace=wrap;rounded=0;" vertex="1" parent="1">
          <mxGeometry x="9" y="2950" width="206" height="10" as="geometry" />
        </mxCell>
        <mxCell id="k2B3AoLcdQhBK3Ua2kND-47" value="" style="endArrow=none;html=1;exitX=0;exitY=0.25;exitDx=0;exitDy=0;" edge="1" parent="1">
          <mxGeometry width="50" height="50" relative="1" as="geometry">
            <mxPoint x="-10" y="2867" as="sourcePoint" />
            <mxPoint x="239.99999999999977" y="2867" as="targetPoint" />
          </mxGeometry>
        </mxCell>
        <mxCell id="k2B3AoLcdQhBK3Ua2kND-53" style="edgeStyle=orthogonalEdgeStyle;rounded=0;orthogonalLoop=1;jettySize=auto;html=1;" edge="1" parent="1" source="k2B3AoLcdQhBK3Ua2kND-49" target="k2B3AoLcdQhBK3Ua2kND-54">
          <mxGeometry relative="1" as="geometry">
            <mxPoint x="610" y="3505" as="targetPoint" />
          </mxGeometry>
        </mxCell>
        <mxCell id="k2B3AoLcdQhBK3Ua2kND-49" value="" style="whiteSpace=wrap;html=1;aspect=fixed;" vertex="1" parent="1">
          <mxGeometry x="-13" y="3380" width="250" height="250" as="geometry" />
        </mxCell>
        <mxCell id="k2B3AoLcdQhBK3Ua2kND-50" value="&lt;font style=&quot;font-size: 20px&quot;&gt;E&lt;/font&gt;" style="text;html=1;strokeColor=none;fillColor=none;align=center;verticalAlign=middle;whiteSpace=wrap;rounded=0;" vertex="1" parent="1">
          <mxGeometry x="92" y="3397" width="40" height="20" as="geometry" />
        </mxCell>
        <mxCell id="k2B3AoLcdQhBK3Ua2kND-51" value="&lt;span style=&quot;font-size: 20px&quot;&gt;Encerrar o processo de reserva. Nesse momento, a venda estará confirmada.&lt;/span&gt;" style="text;html=1;strokeColor=none;fillColor=none;align=center;verticalAlign=middle;whiteSpace=wrap;rounded=0;" vertex="1" parent="1">
          <mxGeometry x="6" y="3510" width="206" height="10" as="geometry" />
        </mxCell>
        <mxCell id="k2B3AoLcdQhBK3Ua2kND-52" value="" style="endArrow=none;html=1;exitX=0;exitY=0.25;exitDx=0;exitDy=0;" edge="1" parent="1">
          <mxGeometry width="50" height="50" relative="1" as="geometry">
            <mxPoint x="-13" y="3427" as="sourcePoint" />
            <mxPoint x="236.99999999999977" y="3427" as="targetPoint" />
          </mxGeometry>
        </mxCell>
        <mxCell id="k2B3AoLcdQhBK3Ua2kND-54" value="" style="rounded=1;whiteSpace=wrap;html=1;" vertex="1" parent="1">
          <mxGeometry x="550" y="3475" width="170" height="60" as="geometry" />
        </mxCell>
        <mxCell id="k2B3AoLcdQhBK3Ua2kND-55" value="&lt;font style=&quot;font-size: 20px&quot;&gt;Fim do Processo&lt;/font&gt;" style="text;html=1;resizable=0;autosize=1;align=center;verticalAlign=middle;points=[];fillColor=none;strokeColor=none;rounded=0;" vertex="1" parent="1">
          <mxGeometry x="547" y="3495" width="170" height="20" as="geometry" />
        </mxCell>
        <mxCell id="k2B3AoLcdQhBK3Ua2kND-76" value="" style="shape=document;whiteSpace=wrap;html=1;boundedLbl=1;" vertex="1" parent="1">
          <mxGeometry x="-30" y="1720" width="360" height="250" as="geometry" />
        </mxCell>
        <mxCell id="k2B3AoLcdQhBK3Ua2kND-77" value="&lt;span style=&quot;font-size: 20px&quot;&gt;Confirmar a reserva no sistema (CM) conforme a solicitação do cliente&lt;/span&gt;" style="text;html=1;strokeColor=none;fillColor=none;align=center;verticalAlign=middle;whiteSpace=wrap;rounded=0;" vertex="1" parent="1">
          <mxGeometry x="2" y="1840" width="290" height="10" as="geometry" />
        </mxCell>
        <mxCell id="k2B3AoLcdQhBK3Ua2kND-78" value="" style="endArrow=none;html=1;exitX=0;exitY=0.25;exitDx=0;exitDy=0;entryX=1;entryY=0.25;entryDx=0;entryDy=0;" edge="1" target="k2B3AoLcdQhBK3Ua2kND-76" parent="1">
          <mxGeometry width="50" height="50" relative="1" as="geometry">
            <mxPoint x="-29.999999999999545" y="1786" as="sourcePoint" />
            <mxPoint x="220.00000000000045" y="1786" as="targetPoint" />
          </mxGeometry>
        </mxCell>
        <mxCell id="k2B3AoLcdQhBK3Ua2kND-79" value="&lt;font style=&quot;font-size: 20px&quot;&gt;E&lt;/font&gt;" style="text;html=1;strokeColor=none;fillColor=none;align=center;verticalAlign=middle;whiteSpace=wrap;rounded=0;" vertex="1" parent="1">
          <mxGeometry x="109" y="1744" width="40" height="20" as="geometry" />
        </mxCell>
      </root>
    </mxGraphModel>
  </diagram>
  <diagram id="dzzK3G4vKQ9KvIIwy7C9" name="Page-2">
    <mxGraphModel dx="3166" dy="1377" grid="1" gridSize="10" guides="1" tooltips="1" connect="1" arrows="1" fold="1" page="1" pageScale="1" pageWidth="827" pageHeight="1169" math="0" shadow="0">
      <root>
        <mxCell id="ErkUvXM7JYsXxh1iPcFE-0" />
        <mxCell id="ErkUvXM7JYsXxh1iPcFE-1" parent="ErkUvXM7JYsXxh1iPcFE-0" />
      </root>
    </mxGraphModel>
  </diagram>
</mxfile>
